<?xml version="1.0" encoding="UTF-8" standalone="no"?>
<svg
   xmlns:dc="http://purl.org/dc/elements/1.1/"
   xmlns:cc="http://creativecommons.org/ns#"
   xmlns:rdf="http://www.w3.org/1999/02/22-rdf-syntax-ns#"
   xmlns:svg="http://www.w3.org/2000/svg"
   xmlns="http://www.w3.org/2000/svg"
   xmlns:sodipodi="http://sodipodi.sourceforge.net/DTD/sodipodi-0.dtd"
   xmlns:inkscape="http://www.inkscape.org/namespaces/inkscape"
   version="1.1"
   x="0px"
   y="0px"
   viewBox="0 0 16 16"
   enable-background="new 0 0 16 16"
   xml:space="preserve"
   id="svg2"
   inkscape:version="0.48.2 r9819"
   width="100%"
   height="100%"
   sodipodi:docname="blog.svg"><metadata
     id="metadata28"><rdf:RDF><cc:Work
         rdf:about=""><dc:format>image/svg+xml</dc:format><dc:type
           rdf:resource="http://purl.org/dc/dcmitype/StillImage" /></cc:Work></rdf:RDF></metadata><defs
     id="defs26" /><sodipodi:namedview
     pagecolor="#ffffff"
     bordercolor="#666666"
     borderopacity="1"
     objecttolerance="10"
     gridtolerance="10"
     guidetolerance="10"
     inkscape:pageopacity="0"
     inkscape:pageshadow="2"
     inkscape:window-width="1307"
     inkscape:window-height="791"
     id="namedview24"
     showgrid="false"
     fit-margin-top="0"
     fit-margin-left="0"
     fit-margin-right="0"
     fit-margin-bottom="0"
     inkscape:zoom="11.8"
     inkscape:cx="7.9999995"
     inkscape:cy="5.9999994"
     inkscape:window-x="0"
     inkscape:window-y="0"
     inkscape:window-maximized="0"
     inkscape:current-layer="svg2" /><g
     id="g4"><path
       d="M 15.9,6.7 C 16,6.5 16,6.2 15.9,6 L 15.2,5.3 C 15.1,5.2 15,5.2 14.8,5.2 c -0.1,0 -0.3,0 -0.4,0.1 L 9,10.6 v 0.4 1 h 1.6 l 5.3,-5.3 z"
       id="path6"
       inkscape:connector-curvature="0" /><rect
       x="3"
       y="3"
       width="10"
       height="1"
       id="rect8" /><polygon
       points="12.3,6 13,5.3 13,5 3,5 3,6 "
       id="polygon10" /><rect
       x="3"
       y="11"
       width="5"
       height="1"
       id="rect12" /><polygon
       points="11.3,7 3,7 3,8 10.3,8 "
       id="polygon14" /><path
       d="m 15,9 v 4 c 0,1.1 -0.9,2 -2,2 H 3 C 1.9,15 1,14.1 1,13 V 3 C 1,1.9 1.9,1 3,1 h 10 c 1.1,0 2,0.9 2,2 v 1.2 c 0.3,0 0.6,0.2 0.9,0.4 L 16,4.7 V 3 C 16,1.3 14.7,0 13,0 H 3 C 1.3,0 0,1.3 0,3 v 10 c 0,1.7 1.3,3 3,3 h 10 c 1.7,0 3,-1.3 3,-3 V 8 l -1,1 z"
       id="path16"
       inkscape:connector-curvature="0" /><polygon
       points="8.3,10 8.4,9.9 9.3,9 3,9 3,10 "
       id="polygon18" /></g></svg>