<?xml version="1.0" encoding="UTF-8" standalone="no"?>
<svg
   xmlns:dc="http://purl.org/dc/elements/1.1/"
   xmlns:cc="http://creativecommons.org/ns#"
   xmlns:rdf="http://www.w3.org/1999/02/22-rdf-syntax-ns#"
   xmlns:svg="http://www.w3.org/2000/svg"
   xmlns="http://www.w3.org/2000/svg"
   xmlns:sodipodi="http://sodipodi.sourceforge.net/DTD/sodipodi-0.dtd"
   xmlns:inkscape="http://www.inkscape.org/namespaces/inkscape"
   version="1.1"
   x="0px"
   y="0px"
   viewBox="0 0 93.439229 90.099998"
   enable-background="new 0 0 100 100"
   xml:space="preserve"
   id="svg2"
   inkscape:version="0.48.2 r9819"
   width="100%"
   height="100%"
   sodipodi:docname="diy.svg"><metadata
     id="metadata16"><rdf:RDF><cc:Work
         rdf:about=""><dc:format>image/svg+xml</dc:format><dc:type
           rdf:resource="http://purl.org/dc/dcmitype/StillImage" /></cc:Work></rdf:RDF></metadata><defs
     id="defs14" /><sodipodi:namedview
     pagecolor="#ffffff"
     bordercolor="#666666"
     borderopacity="1"
     objecttolerance="10"
     gridtolerance="10"
     guidetolerance="10"
     inkscape:pageopacity="0"
     inkscape:pageshadow="2"
     inkscape:window-width="640"
     inkscape:window-height="480"
     id="namedview12"
     showgrid="false"
     fit-margin-top="0"
     fit-margin-left="5"
     fit-margin-right="5"
     fit-margin-bottom="0"
     inkscape:zoom="1.888"
     inkscape:cx="46.639229"
     inkscape:cy="32.6"
     inkscape:window-x="450"
     inkscape:window-y="0"
     inkscape:window-maximized="0"
     inkscape:current-layer="svg2" /><g
     id="g4"
     transform="translate(-3.3607707,-5)"><path
       d="M 89.8,6.5 C 88.7,5.5 87.4,5 86,5 84.4,5 82.8,5.7 81.7,6.9 L 48.4,41.5 c 0,0 0,0 0,0 0,0 0,0 0,0 L 35.9,54.7 c 0,0 0,0 0,0 l -2.5,2.5 c -0.1,0.1 -0.2,0.3 -0.2,0.5 0,0 0,0 0,0 -2.2,1.2 -4.5,2.8 -6.6,5.1 0,0 0,0 0,0 -1.4,1.5 -2.6,3.2 -3.6,5.1 -3.1,5.5 -5,11.4 -6.5,16.2 -0.3,1 -0.6,1.9 -0.9,2.8 -1,3.3 -4,3.8 -6.3,3.7 -0.1,0 -0.2,0 -0.3,0 -0.1,0 -0.2,0 -0.4,0.1 -0.1,0.1 -0.1,0.1 -0.2,0.3 -0.1,0.3 0,0.6 0.2,0.8 0.1,0.1 0.2,0.1 0.2,0.1 L 9,92 c 3,1.3 8,3.1 12.1,3.1 1.1,0 2.1,-0.1 3,-0.4 5.3,-1.5 10.1,-4.8 13.5,-9.2 0.8,-1 1.4,-2 2,-3.1 2.6,-4.7 4.4,-9.6 5.8,-13.9 0.2,0 0.3,-0.1 0.5,-0.2 l 2.2,-2.7 c 0,0 0,0 0,0 L 59.8,51.7 c 0,0 0,0 0,0 0,0 0,0 0,0 L 90.3,14.8 c 1,-1.2 1.5,-2.6 1.5,-4.2 C 91.6,8.9 91,7.5 89.8,6.5 z m -62,57 c 2.1,-2.2 4.3,-3.7 6.4,-4.8 l 10,8.9 c -1.4,4.3 -3.2,9.3 -5.8,14 -0.5,1 -1.1,1.9 -1.8,2.8 l -4.2,1.1 1.9,-4.4 c 0.1,-0.1 0.1,-0.3 0,-0.4 0,0 0,0 0,-0.1 0,-0.1 -0.1,-0.2 -0.2,-0.3 0,0 0,0 0,0 0,0 0,0 0,0 0,0 -0.1,-0.1 -0.1,-0.1 -0.1,0 -0.1,0 -0.2,0 0,0 0,0 0,0 -0.1,0 -0.3,0 -0.4,0.1 0,0 0,0 0,0 L 25.1,86 29.9,76.6 C 30,76.3 30,76 29.7,75.8 c -0.1,-0.1 -0.3,-0.1 -0.4,-0.1 0,0 0,0 0,0 0,0 0,0 0,0 -0.1,0 -0.3,0 -0.4,0.1 l -6.1,4.7 c -0.6,-8 5,-17 5,-17 z m 19.6,0.6 -10.1,-9 11.6,-12.3 9.4,8.4 -10.9,12.9 z"
       id="path6"
       inkscape:connector-curvature="0" /></g></svg>