<?xml version="1.0" encoding="UTF-8" standalone="no"?>
<svg
   xmlns:dc="http://purl.org/dc/elements/1.1/"
   xmlns:cc="http://creativecommons.org/ns#"
   xmlns:rdf="http://www.w3.org/1999/02/22-rdf-syntax-ns#"
   xmlns:svg="http://www.w3.org/2000/svg"
   xmlns="http://www.w3.org/2000/svg"
   xmlns:sodipodi="http://sodipodi.sourceforge.net/DTD/sodipodi-0.dtd"
   xmlns:inkscape="http://www.inkscape.org/namespaces/inkscape"
   version="1.1"
   x="0px"
   y="0px"
   viewBox="0 0 90 78.316"
   enable-background="new 0 0 100 100"
   xml:space="preserve"
   id="svg2"
   inkscape:version="0.48.2 r9819"
   width="100%"
   height="100%"
   sodipodi:docname="camera.svg"><metadata
     id="metadata14"><rdf:RDF><cc:Work
         rdf:about=""><dc:format>image/svg+xml</dc:format><dc:type
           rdf:resource="http://purl.org/dc/dcmitype/StillImage" /></cc:Work></rdf:RDF></metadata><defs
     id="defs12" /><sodipodi:namedview
     pagecolor="#ffffff"
     bordercolor="#666666"
     borderopacity="1"
     objecttolerance="10"
     gridtolerance="10"
     guidetolerance="10"
     inkscape:pageopacity="0"
     inkscape:pageshadow="2"
     inkscape:window-width="640"
     inkscape:window-height="480"
     id="namedview10"
     showgrid="false"
     fit-margin-top="0"
     fit-margin-left="0"
     fit-margin-right="0"
     fit-margin-bottom="0"
     inkscape:zoom="1.888"
     inkscape:cx="45"
     inkscape:cy="26.658"
     inkscape:window-x="0"
     inkscape:window-y="0"
     inkscape:window-maximized="0"
     inkscape:current-layer="svg2" /><path
     d="M 90,24.212 C 90,20.91 88.694,19.729 85.391,19.729 H 69.833 L 60.455,4.099 C 59.074,1.839 56.614,0 53.542,0 H 36.364 C 33.537,0 30.863,1.893 29.44,4.103 L 19.668,19.729 H 16.031 C 15.872,18.384 14.742,17.337 13.354,17.337 H 9.46 c -1.388,0 -2.518,1.047 -2.677,2.392 H 5.074 C 1.667,19.729 0,20.91 0,24.212 v 48.287 c 0,3.302 1.782,5.817 5.523,5.817 h 79.098 c 3.073,0 5.379,-2.248 5.379,-5.55 V 24.212 z M 36.031,6.738 c 0,-0.484 0.391,-0.875 0.877,-0.875 h 16.185 c 0.482,0 0.877,0.391 0.877,0.875 v 7.219 c 0,0.483 -0.394,0.874 -0.877,0.874 H 36.908 c -0.485,0 -0.877,-0.391 -0.877,-0.874 V 6.738 z m 8.981,62.661 c -11.999,0 -21.723,-9.725 -21.723,-21.722 0,-11.996 9.725,-21.722 21.723,-21.722 11.996,0 21.72,9.726 21.72,21.722 0,11.997 -9.725,21.722 -21.72,21.722 z M 78.545,36.13 c -2.806,0 -5.083,-2.275 -5.083,-5.081 0,-2.806 2.277,-5.081 5.083,-5.081 2.806,0 5.083,2.275 5.083,5.081 0,2.806 -2.277,5.081 -5.083,5.081 z"
     id="path4"
     inkscape:connector-curvature="0" /></svg>