<?xml version="1.0" encoding="UTF-8" standalone="no"?>
<svg
   xmlns:dc="http://purl.org/dc/elements/1.1/"
   xmlns:cc="http://creativecommons.org/ns#"
   xmlns:rdf="http://www.w3.org/1999/02/22-rdf-syntax-ns#"
   xmlns:svg="http://www.w3.org/2000/svg"
   xmlns="http://www.w3.org/2000/svg"
   xmlns:sodipodi="http://sodipodi.sourceforge.net/DTD/sodipodi-0.dtd"
   xmlns:inkscape="http://www.inkscape.org/namespaces/inkscape"
   version="1.1"
   x="0px"
   y="0px"
   viewBox="0 0 90 86.816"
   enable-background="new 0 0 100 100"
   xml:space="preserve"
   id="svg2"
   inkscape:version="0.48.2 r9819"
   width="100%"
   height="100%"
   sodipodi:docname="photos.svg"><metadata
     id="metadata14"><rdf:RDF><cc:Work
         rdf:about=""><dc:format>image/svg+xml</dc:format><dc:type
           rdf:resource="http://purl.org/dc/dcmitype/StillImage" /></cc:Work></rdf:RDF></metadata><defs
     id="defs12" /><sodipodi:namedview
     pagecolor="#ffffff"
     bordercolor="#666666"
     borderopacity="1"
     objecttolerance="10"
     gridtolerance="10"
     guidetolerance="10"
     inkscape:pageopacity="0"
     inkscape:pageshadow="2"
     inkscape:window-width="640"
     inkscape:window-height="480"
     id="namedview10"
     showgrid="false"
     fit-margin-top="4.5"
     fit-margin-left="0"
     fit-margin-right="0"
     fit-margin-bottom="4"
     inkscape:zoom="1.888"
     inkscape:cx="45"
     inkscape:cy="30.658001"
     inkscape:window-x="740"
     inkscape:window-y="153"
     inkscape:window-maximized="0"
     inkscape:current-layer="svg2" /><path
     d="m 90,28.711999 c 0,-3.302 -1.306,-4.483 -4.609,-4.483 H 69.833 L 60.455,8.5989991 c -1.381,-2.26 -3.841,-4.099 -6.913,-4.099 H 36.364 c -2.827,0 -5.501,1.893 -6.924,4.103 L 19.668,24.228999 h -3.637 c -0.159,-1.345 -1.289,-2.392 -2.677,-2.392 H 9.46 c -1.388,0 -2.518,1.047 -2.677,2.392 H 5.074 c -3.407,0 -5.074,1.181 -5.074,4.483 v 48.287 c 0,3.302 1.782,5.817 5.523,5.817 h 79.098 c 3.073,0 5.379,-2.248 5.379,-5.55 v -48.554 z m -53.969,-17.474 c 0,-0.484 0.391,-0.875 0.877,-0.875 h 16.185 c 0.482,0 0.877,0.391 0.877,0.875 v 7.219 c 0,0.483 -0.394,0.874 -0.877,0.874 H 36.908 c -0.485,0 -0.877,-0.391 -0.877,-0.874 v -7.219 z m 8.981,62.661 c -11.999,0 -21.723,-9.725 -21.723,-21.722 0,-11.996 9.725,-21.722 21.723,-21.722 11.996,0 21.72,9.726 21.72,21.722 0,11.997 -9.725,21.722 -21.72,21.722 z m 33.533,-33.269 c -2.806,0 -5.083,-2.275 -5.083,-5.081 0,-2.806 2.277,-5.081 5.083,-5.081 2.806,0 5.083,2.275 5.083,5.081 0,2.806 -2.277,5.081 -5.083,5.081 z"
     id="path4"
     inkscape:connector-curvature="0" /></svg>