<?xml version="1.0" encoding="UTF-8" standalone="no"?>
<svg
   xmlns:dc="http://purl.org/dc/elements/1.1/"
   xmlns:cc="http://creativecommons.org/ns#"
   xmlns:rdf="http://www.w3.org/1999/02/22-rdf-syntax-ns#"
   xmlns:svg="http://www.w3.org/2000/svg"
   xmlns="http://www.w3.org/2000/svg"
   xmlns:sodipodi="http://sodipodi.sourceforge.net/DTD/sodipodi-0.dtd"
   xmlns:inkscape="http://www.inkscape.org/namespaces/inkscape"
   version="1.1"
   viewBox="0 0 89.999934 86.443399"
   xml:space="preserve"
   x="0px"
   y="0px"
   id="svg2"
   inkscape:version="0.48.2 r9819"
   width="100%"
   height="100%"
   sodipodi:docname="noun_171508_cc.svg"><metadata
     id="metadata64"><rdf:RDF><cc:Work
         rdf:about=""><dc:format>image/svg+xml</dc:format><dc:type
           rdf:resource="http://purl.org/dc/dcmitype/StillImage" /></cc:Work></rdf:RDF></metadata><defs
     id="defs62" /><sodipodi:namedview
     pagecolor="#ffffff"
     bordercolor="#666666"
     borderopacity="1"
     objecttolerance="10"
     gridtolerance="10"
     guidetolerance="10"
     inkscape:pageopacity="0"
     inkscape:pageshadow="2"
     inkscape:window-width="640"
     inkscape:window-height="480"
     id="namedview60"
     showgrid="false"
     fit-margin-top="0"
     fit-margin-left="0"
     fit-margin-right="0"
     fit-margin-bottom="0"
     inkscape:zoom="1.888"
     inkscape:cx="44.999922"
     inkscape:cy="30.721466"
     inkscape:window-x="0"
     inkscape:window-y="0"
     inkscape:window-maximized="0"
     inkscape:current-layer="svg2" /><g
     transform="matrix(0.30547067,0,0,0.30547067,5076.0892,-6583.0835)"
     id="g4"><path
       d="m -16605.094,21998.625 c -3.342,-0.05 -6.692,1.365 -8.968,3.813 -2.277,2.445 -3.444,5.888 -3.157,9.218 1.945,27.659 22.344,51.173 44.063,62.75 28.465,15.173 57.34,27.378 73.75,50 7.164,12.463 3.665,31.633 -7.5,40.5 -0.396,0.32 -0.772,0.665 -1.125,1.032 -5.635,5.8 -12.587,10.587 -20.344,15 8.271,4.061 16.482,8.308 24.219,13.156 4.645,-3.346 9.126,-7.097 13.312,-11.406 l -0.03,-0.03 c 20.514,-17.279 25.713,-47.84 11.906,-70.937 -20.571,-28.773 -55.799,-44.202 -82.906,-58.5 -14.264,-7.603 -30.329,-27.937 -31.406,-43.25 -0.164,-3 -1.49,-5.919 -3.657,-8 -2.167,-2.081 -5.152,-3.301 -8.156,-3.344 z m 20.5,212.406 c -6.482,4.711 -12.557,10.228 -17.844,17 -9.65,12.364 -13.65,27.788 -14.281,40.75 -0.215,3.171 0.888,6.405 3,8.781 2.112,2.376 5.2,3.874 8.375,4.032 3.174,0.157 6.414,-1.033 8.75,-3.188 2.336,-2.154 3.744,-5.26 3.844,-8.437 0.395,-8.13 4.154,-20.659 9.25,-27.188 5.984,-7.666 14.197,-13.629 23.812,-19.062 -8.481,-3.952 -16.972,-7.897 -24.906,-12.688 z"
       transform="translate(0,-448)"
       style="text-indent:0;text-transform:none;direction:ltr;block-progression:tb;baseline-shift:baseline;color:#000000;fill:#000000;fill-opacity:1;stroke:none;marker:none;visibility:visible;display:inline;overflow:visible;enable-background:accumulate"
       visibility="visible"
       display="inline"
       overflow="visible"
       id="path6"
       inkscape:connector-curvature="0" /><path
       d="m -16598.219,22110.125 c -2.77,0 -5,2.23 -5,5 l 0,2 c 0,2.77 2.23,5 5,5 l 77.907,0 c -4.764,-4.596 -10.237,-8.477 -16,-12 l -61.907,0 z m 0,24 c -2.77,0 -5,2.23 -5,5 l 0,2 c 0,2.77 2.23,5 5,5 l 87.313,0 c 1.208,-3.346 1.609,-6.95 0.875,-10.75 -0.232,-0.422 -0.477,-0.838 -0.719,-1.25 l -87.469,0 z m 0,24 c -2.77,0 -5,2.23 -5,5 l 0,2 c 0,2.77 2.23,5 5,5 l 60.594,0 c 2.732,-1.59 5.458,-3.197 8.125,-4.906 3.474,-1.845 7.01,-4.238 10.125,-7.094 l -78.844,0 z"
       transform="translate(0,-448)"
       style="fill:#000000;fill-opacity:1;fill-rule:nonzero;stroke:none"
       id="path8"
       inkscape:connector-curvature="0" /><path
       d="m -16578.125,22012.875 c 1.53,4.192 3.337,8.264 5.75,12 l 84.687,0 c 2.771,0 5,-2.23 5,-5 l 0,-2 c 0,-2.77 -2.229,-5 -5,-5 l -90.437,0 z m 18.344,24 c 6.164,4.452 12.724,8.328 19.406,12 l 46.813,0 c 6.034,0 10.874,-2.676 10.874,-6 0,-3.324 -4.84,-6 -10.874,-6 l -66.219,0 z"
       transform="translate(0,-448)"
       style="fill:#000000;fill-opacity:1;fill-rule:nonzero;stroke:none"
       id="path10"
       inkscape:connector-curvature="0" /><path
       d="m -16490.312,21783.344 c 2.77,0 5,2.23 5,5 l 0,2 c 0,2.77 -2.23,5 -5,5 l -73.125,0 c 5.842,-4.666 12.232,-8.512 18.906,-12 l 54.219,0 z m 0,24 c 2.77,0 5,2.23 5,5 l 0,2 c 0,2.77 -2.23,5 -5,5 l -87.813,0 c 0.819,-4.148 1.696,-8.26 3.344,-12 l 84.469,0 z"
       style="fill:#000000;fill-opacity:1;fill-rule:nonzero;stroke:none"
       id="path12"
       inkscape:connector-curvature="0" /><path
       d="m -16483.438,21998.625 c -3.004,0.04 -5.957,1.263 -8.124,3.344 -2.167,2.081 -3.524,5 -3.688,8 -1.077,15.313 -17.142,35.647 -31.406,43.25 -0.917,0.484 -1.909,0.982 -2.844,1.469 8.098,4.344 16.203,8.702 23.938,13.593 17.72,-12.744 32.602,-33.191 34.25,-56.625 0.287,-3.33 -0.88,-6.773 -3.157,-9.218 -2.276,-2.448 -5.626,-3.863 -8.969,-3.813 z m -99.343,86.719 c -10.108,7.454 -19.397,16.046 -26.781,26.375 -13.808,23.097 -8.608,53.658 11.906,70.937 l -0.03,0.03 c 15.282,15.733 34.441,24.054 51.5,32.187 17.059,8.133 31.819,15.943 41.157,27.906 5.096,6.529 8.855,19.058 9.25,27.188 0.1,3.177 1.539,6.283 3.875,8.437 2.336,2.155 5.545,3.345 8.718,3.188 3.175,-0.158 6.263,-1.656 8.376,-4.032 2.112,-2.376 3.215,-5.61 3,-8.781 -0.631,-12.962 -4.632,-28.386 -14.282,-40.75 -13.576,-17.392 -32.392,-26.553 -49.781,-34.843 -17.388,-8.292 -33.548,-15.847 -44.625,-27.25 -0.353,-0.367 -0.729,-0.712 -1.125,-1.032 -11.165,-8.867 -14.664,-28.037 -7.5,-40.5 7.772,-10.714 18.379,-19.068 30.375,-26.531 -1.455,-0.775 -2.892,-1.557 -4.312,-2.344 -6.763,-2.812 -13.394,-6.217 -19.719,-10.187 z"
       transform="translate(0,-448)"
       style="text-indent:0;text-transform:none;direction:ltr;block-progression:tb;baseline-shift:baseline;color:#000000;fill:#000000;fill-opacity:1;stroke:none;marker:none;visibility:visible;display:inline;overflow:visible;enable-background:accumulate"
       visibility="visible"
       display="inline"
       overflow="visible"
       id="path14"
       inkscape:connector-curvature="0" /></g><path
     d="m 55.583562,54.46916 c -1.010625,0 -1.914018,0.281911 -2.622945,0.859988 -0.696161,0.567014 -1.205729,1.364238 -1.535937,2.34231 -0.334251,0.989775 -0.4851,2.233163 -0.4851,3.748036 0,2.410394 0.404888,4.224626 1.358705,5.427802 a 0.57494681,0.57494681 0 0 0 0,0.0021 c 0.788713,0.990838 1.945294,1.509129 3.285277,1.509129 1.016369,0 1.922315,-0.282975 2.63188,-0.864457 0.695523,-0.570418 1.202325,-1.371046 1.529342,-2.349118 0.330421,-0.988498 0.480632,-2.222312 0.480632,-3.725484 0,-1.265089 -0.09213,-2.287629 -0.29872,-3.0923 l 0,-0.0021 C 59.72755,57.549119 59.447554,56.872532 59.077771,56.301902 58.701181,55.72042 58.207783,55.256383 57.615876,54.940856 57.017798,54.621498 56.330573,54.469372 55.583562,54.469372 z m -0.01702,2.416351 c 0.534035,0 0.921264,0.207444 1.322748,0.77233 0.320422,0.451271 0.612971,1.752105 0.612971,3.761653 0,1.997421 -0.289145,3.292511 -0.612971,3.752505 -0.403399,0.572545 -0.786585,0.779138 -1.304876,0.779138 -0.518504,0 -0.901903,-0.205103 -1.304664,-0.77467 -0.321911,-0.455314 -0.615311,-1.753807 -0.615311,-3.756973 0,-1.994867 0.298506,-3.31868 0.687225,-3.882715 l 0.0021,-0.0043 c 0.331698,-0.468717 0.67297,-0.646587 1.212751,-0.646587 z"
     style="text-indent:0;text-transform:none;direction:ltr;block-progression:tb;baseline-shift:baseline;color:#000000;fill:#000000;fill-opacity:1;fill-rule:nonzero;stroke:none;marker:none;visibility:visible;display:inline;overflow:visible;enable-background:accumulate"
     visibility="visible"
     display="inline"
     overflow="visible"
     id="path16"
     inkscape:connector-curvature="0" /><path
     d="m 66.524483,54.46916 a 0.57494681,0.57494681 0 0 0 -0.516377,0.318932 c -0.221486,0.447441 -0.624672,0.955732 -1.228494,1.495512 -0.596163,0.532759 -1.297005,0.990625 -2.108696,1.37211 a 0.57494681,0.57494681 0 0 0 -0.330209,0.518716 l 0,1.482109 a 0.57494681,0.57494681 0 0 0 0.772544,0.538929 c 0.520206,-0.191913 1.086581,-0.470632 1.706786,-0.835308 0.213401,-0.125318 0.395527,-0.252338 0.583822,-0.37957 l 0,8.592016 a 0.57494681,0.57494681 0 0 0 0.574886,0.574886 l 1.531682,0 a 0.57494681,0.57494681 0 0 0 0.574886,-0.574886 l 0,-12.52856 A 0.57494681,0.57494681 0 0 0 67.510427,54.46916 l -0.985944,0 z"
     style="text-indent:0;text-transform:none;direction:ltr;block-progression:tb;baseline-shift:baseline;color:#000000;fill:#000000;fill-opacity:1;fill-rule:nonzero;stroke:none;marker:none;visibility:visible;display:inline;overflow:visible;enable-background:accumulate"
     visibility="visible"
     display="inline"
     overflow="visible"
     id="path18"
     inkscape:connector-curvature="0" /><path
     d="m 76.008827,54.46916 c -1.010625,0 -1.914018,0.281911 -2.622945,0.859988 -0.696161,0.567014 -1.205729,1.364238 -1.535937,2.34231 -0.334251,0.989775 -0.4851,2.233163 -0.4851,3.748036 0,2.410394 0.404888,4.224626 1.358706,5.427802 a 0.57494681,0.57494681 0 0 0 0,0.0021 c 0.788713,0.990838 1.945293,1.509129 3.285276,1.509129 1.01637,0 1.922315,-0.282975 2.63188,-0.864457 0.695523,-0.570418 1.202325,-1.371046 1.529342,-2.349118 0.330421,-0.988498 0.480632,-2.222312 0.480632,-3.725484 0,-1.265089 -0.09213,-2.287629 -0.298719,-3.0923 l 0,-0.0021 C 80.152815,57.549119 79.872819,56.872532 79.503037,56.301902 79.126446,55.72042 78.633048,55.256383 78.041141,54.940856 77.443064,54.621498 76.755838,54.469372 76.008827,54.469372 z m -0.01702,2.416351 c 0.534035,0 0.921264,0.207444 1.322749,0.77233 0.320421,0.451271 0.61297,1.752105 0.61297,3.761653 0,1.997421 -0.289145,3.292511 -0.61297,3.752505 -0.403399,0.572545 -0.786586,0.779138 -1.304877,0.779138 -0.518504,0 -0.901903,-0.205103 -1.304664,-0.77467 -0.321911,-0.455314 -0.615311,-1.753807 -0.615311,-3.756973 0,-1.994867 0.298507,-3.31868 0.687225,-3.882715 l 0.0021,-0.0043 c 0.331698,-0.468717 0.67297,-0.646587 1.21275,-0.646587 z"
     style="text-indent:0;text-transform:none;direction:ltr;block-progression:tb;baseline-shift:baseline;color:#000000;fill:#000000;fill-opacity:1;fill-rule:nonzero;stroke:none;marker:none;visibility:visible;display:inline;overflow:visible;enable-background:accumulate"
     visibility="visible"
     display="inline"
     overflow="visible"
     id="path20"
     inkscape:connector-curvature="0" /><path
     d="m 88.43909,54.46916 a 0.57494681,0.57494681 0 0 0 -0.516376,0.318932 c -0.221487,0.447441 -0.624673,0.955732 -1.228495,1.495512 -0.596162,0.532759 -1.297004,0.990625 -2.108696,1.37211 a 0.57494681,0.57494681 0 0 0 -0.330208,0.518716 l 0,1.482109 a 0.57494681,0.57494681 0 0 0 0.772543,0.538929 c 0.520206,-0.191913 1.086582,-0.470632 1.706786,-0.835308 0.213402,-0.125318 0.395527,-0.252338 0.583823,-0.37957 l 0,8.592016 a 0.57494681,0.57494681 0 0 0 0.574886,0.574886 l 1.531682,0 a 0.57494681,0.57494681 0 0 0 0.574886,-0.574886 l 0,-12.52856 A 0.57494681,0.57494681 0 0 0 89.425035,54.46916 l -0.985945,0 z"
     style="text-indent:0;text-transform:none;direction:ltr;block-progression:tb;baseline-shift:baseline;color:#000000;fill:#000000;fill-opacity:1;fill-rule:nonzero;stroke:none;marker:none;visibility:visible;display:inline;overflow:visible;enable-background:accumulate"
     visibility="visible"
     display="inline"
     overflow="visible"
     id="path22"
     inkscape:connector-curvature="0" /><path
     d="m 63.443474,2.1446865e-4 c -1.010625,0 -1.914017,0.28191120135 -2.622944,0.85998880135 -0.696161,0.56701393 -1.205729,1.36423753 -1.535938,2.34230983 -0.334251,0.9897744 -0.4851,2.2331624 -0.4851,3.7480364 0,2.410394 0.404889,4.2246255 1.358706,5.4278005 a 0.57494681,0.57494681 0 0 0 0,0.0021 c 0.788713,0.990838 1.945294,1.509129 3.285276,1.509129 1.01637,0 1.922316,-0.282975 2.631881,-0.864457 0.695523,-0.570418 1.202324,-1.371046 1.529341,-2.349118 0.330422,-0.9884975 0.480633,-2.2223105 0.480633,-3.7254825 0,-1.26509 -0.09213,-2.28763 -0.29872,-3.0923 l 0,-0.0021 C 67.587463,3.0801743 67.307466,2.4035874 66.937684,1.8329565 66.561093,1.2514748 66.067695,0.78743827 65.475788,0.47191047 64.877711,0.15255287 64.190486,4.2726865e-4 63.443474,4.2726865e-4 z M 63.426454,2.4165659 c 0.534036,0 0.921265,0.2074441 1.322749,0.7723304 0.320421,0.4512702 0.612971,1.7521052 0.612971,3.7616532 0,1.997421 -0.289146,3.2925095 -0.612971,3.7525035 -0.403399,0.572546 -0.786586,0.779139 -1.304877,0.779139 -0.518504,0 -0.901903,-0.205104 -1.304664,-0.774671 -0.32191,-0.455313 -0.615311,-1.7538065 -0.615311,-3.7569715 0,-1.994868 0.298507,-3.31868 0.687225,-3.8827155 l 0.0021,-0.00426 c 0.331725,-0.4687125 0.672997,-0.6465825 1.212777,-0.6465825 z"
     style="text-indent:0;text-transform:none;direction:ltr;block-progression:tb;baseline-shift:baseline;color:#000000;fill:#000000;fill-opacity:1;fill-rule:nonzero;stroke:none;marker:none;visibility:visible;display:inline;overflow:visible;enable-background:accumulate"
     visibility="visible"
     display="inline"
     overflow="visible"
     id="path24"
     inkscape:connector-curvature="0" /><path
     d="m 55.12337,0.42574087 a 0.57494681,0.57494681 0 0 0 -0.516376,0.318932 C 54.385507,1.1921138 53.982321,1.7004051 53.378499,2.2401853 52.782337,2.7729443 52.081495,3.2308105 51.269803,3.6122955 a 0.57494681,0.57494681 0 0 0 -0.330208,0.518716 l 0,1.482108 a 0.57494681,0.57494681 0 0 0 0.772543,0.53893 c 0.520206,-0.191913 1.086582,-0.470633 1.706786,-0.835309 0.213402,-0.125317 0.395527,-0.252337 0.583822,-0.379569 l 0,8.5920145 a 0.57494681,0.57494681 0 0 0 0.574887,0.574886 l 1.531682,0 a 0.57494681,0.57494681 0 0 0 0.574886,-0.574886 l 0,-12.528559 A 0.57494681,0.57494681 0 0 0 56.109315,0.42574087 l -0.985945,0 z"
     style="text-indent:0;text-transform:none;direction:ltr;block-progression:tb;baseline-shift:baseline;color:#000000;fill:#000000;fill-opacity:1;fill-rule:nonzero;stroke:none;marker:none;visibility:visible;display:inline;overflow:visible;enable-background:accumulate"
     visibility="visible"
     display="inline"
     overflow="visible"
     id="path26"
     inkscape:connector-curvature="0" /><path
     d="m 74.238227,2.1446865e-4 c -1.010625,0 -1.914018,0.28191120135 -2.622945,0.85998880135 -0.696161,0.56701393 -1.205729,1.36423753 -1.535937,2.34230983 -0.334251,0.9897744 -0.4851,2.2331624 -0.4851,3.7480364 0,2.410394 0.404888,4.2246255 1.358706,5.4278005 a 0.57494681,0.57494681 0 0 0 0,0.0021 c 0.788713,0.990838 1.945293,1.509129 3.285276,1.509129 1.01637,0 1.922315,-0.282975 2.63188,-0.864457 0.695523,-0.570418 1.202325,-1.371046 1.529342,-2.349118 0.330421,-0.9884975 0.480632,-2.2223105 0.480632,-3.7254825 0,-1.26509 -0.09213,-2.28763 -0.298719,-3.0923 l 0,-0.0021 C 78.382215,3.0801743 78.102219,2.4035874 77.732437,1.8329565 77.355846,1.2514748 76.862448,0.78743827 76.270541,0.47191047 75.672464,0.15255287 74.985238,4.2726865e-4 74.238227,4.2726865e-4 z M 74.221207,2.4165659 c 0.534035,0 0.921264,0.2074441 1.322749,0.7723304 0.320421,0.4512702 0.61297,1.7521052 0.61297,3.7616532 0,1.997421 -0.289145,3.2925095 -0.61297,3.7525035 -0.403399,0.572546 -0.786586,0.779139 -1.304877,0.779139 -0.518504,0 -0.901903,-0.205104 -1.304664,-0.774671 -0.321911,-0.455313 -0.615311,-1.7538065 -0.615311,-3.7569715 0,-1.994868 0.298507,-3.31868 0.687225,-3.8827155 l 0.0021,-0.00426 c 0.331725,-0.4687125 0.672997,-0.6465825 1.212777,-0.6465825 z"
     style="text-indent:0;text-transform:none;direction:ltr;block-progression:tb;baseline-shift:baseline;color:#000000;fill:#000000;fill-opacity:1;fill-rule:nonzero;stroke:none;marker:none;visibility:visible;display:inline;overflow:visible;enable-background:accumulate"
     visibility="visible"
     display="inline"
     overflow="visible"
     id="path28"
     inkscape:connector-curvature="0" /><path
     d="m 85.358082,2.1446865e-4 c -1.010625,0 -1.914018,0.28191120135 -2.622945,0.85998880135 C 82.038976,1.4272172 81.529408,2.2244408 81.1992,3.2025131 c -0.334251,0.9897744 -0.4851,2.2331624 -0.4851,3.7480364 0,2.410394 0.404888,4.2246255 1.358705,5.4278005 a 0.57494681,0.57494681 0 0 0 0,0.0021 c 0.788714,0.990838 1.945294,1.509129 3.285277,1.509129 1.016369,0 1.922315,-0.282975 2.63188,-0.864457 0.695523,-0.570418 1.202325,-1.371046 1.529342,-2.349118 0.330421,-0.9884975 0.480632,-2.2223105 0.480632,-3.7254825 0,-1.26509 -0.09213,-2.28763 -0.298719,-3.0923 l 0,-0.0021 C 89.50207,3.0801743 89.222074,2.4035874 88.852291,1.8329565 88.475701,1.2514748 87.982303,0.78743827 87.390396,0.47191047 86.792318,0.15255287 86.105093,4.2726865e-4 85.358082,4.2726865e-4 z M 85.341062,2.4165659 c 0.534035,0 0.921264,0.2074441 1.322748,0.7723304 0.320422,0.4512702 0.612971,1.7521052 0.612971,3.7616532 0,1.997421 -0.289145,3.2925095 -0.612971,3.7525035 -0.403399,0.572546 -0.786585,0.779139 -1.304876,0.779139 -0.518504,0 -0.901903,-0.205104 -1.304664,-0.774671 -0.321911,-0.455313 -0.615311,-1.7538065 -0.615311,-3.7569715 0,-1.994868 0.298507,-3.31868 0.687225,-3.8827155 l 0.0021,-0.00426 c 0.331724,-0.4687125 0.672997,-0.6465825 1.212777,-0.6465825 z"
     style="text-indent:0;text-transform:none;direction:ltr;block-progression:tb;baseline-shift:baseline;color:#000000;fill:#000000;fill-opacity:1;fill-rule:nonzero;stroke:none;marker:none;visibility:visible;display:inline;overflow:visible;enable-background:accumulate"
     visibility="visible"
     display="inline"
     overflow="visible"
     id="path30"
     inkscape:connector-curvature="0" /><path
     d="m 55.583562,18.299674 c -1.010625,0 -1.914018,0.281911 -2.622945,0.859989 -0.696161,0.567013 -1.205729,1.364237 -1.535937,2.342309 -0.334251,0.989775 -0.4851,2.233163 -0.4851,3.748037 0,2.410394 0.404888,4.224625 1.358705,5.427801 a 0.57494681,0.57494681 0 0 0 0,0.0021 c 0.788713,0.990838 1.945294,1.509129 3.285277,1.509129 1.016369,0 1.922315,-0.282975 2.63188,-0.864457 0.695523,-0.570418 1.202325,-1.371046 1.529342,-2.349118 0.330421,-0.988498 0.480632,-2.222311 0.480632,-3.725483 0,-1.26509 -0.09213,-2.28763 -0.29872,-3.0923 l 0,-0.0021 C 59.72755,21.379634 59.447554,20.703047 59.077771,20.132416 58.701181,19.550934 58.207783,19.086898 57.615876,18.77137 57.017798,18.452012 56.330573,18.299887 55.583562,18.299887 z m -0.01702,2.416351 c 0.534035,0 0.921264,0.207444 1.322748,0.772331 0.320422,0.45127 0.612971,1.752104 0.612971,3.761653 0,1.99742 -0.289145,3.29251 -0.612971,3.752504 -0.403399,0.572546 -0.786585,0.779139 -1.304876,0.779139 -0.518504,0 -0.901903,-0.205104 -1.304664,-0.774671 -0.321911,-0.455313 -0.615311,-1.753807 -0.615311,-3.756972 0,-1.994868 0.298506,-3.31868 0.687225,-3.882716 l 0.0021,-0.0043 c 0.331698,-0.468717 0.67297,-0.646587 1.212751,-0.646587 z"
     style="text-indent:0;text-transform:none;direction:ltr;block-progression:tb;baseline-shift:baseline;color:#000000;fill:#000000;fill-opacity:1;fill-rule:nonzero;stroke:none;marker:none;visibility:visible;display:inline;overflow:visible;enable-background:accumulate"
     visibility="visible"
     display="inline"
     overflow="visible"
     id="path32"
     inkscape:connector-curvature="0" /><path
     d="m 66.524483,18.299674 a 0.57494681,0.57494681 0 0 0 -0.516377,0.318932 c -0.221486,0.447441 -0.624672,0.955732 -1.228494,1.495512 -0.596163,0.532759 -1.297005,0.990626 -2.108696,1.37211 a 0.57494681,0.57494681 0 0 0 -0.330209,0.518717 l 0,1.482108 a 0.57494681,0.57494681 0 0 0 0.772544,0.538929 c 0.520206,-0.191912 1.086581,-0.470632 1.706786,-0.835308 0.213401,-0.125318 0.395527,-0.252337 0.583822,-0.37957 l 0,8.592016 a 0.57494681,0.57494681 0 0 0 0.574886,0.574886 l 1.531682,0 a 0.57494681,0.57494681 0 0 0 0.574886,-0.574886 l 0,-12.52856 a 0.57494681,0.57494681 0 0 0 -0.574886,-0.574886 l -0.985944,0 z"
     style="text-indent:0;text-transform:none;direction:ltr;block-progression:tb;baseline-shift:baseline;color:#000000;fill:#000000;fill-opacity:1;fill-rule:nonzero;stroke:none;marker:none;visibility:visible;display:inline;overflow:visible;enable-background:accumulate"
     visibility="visible"
     display="inline"
     overflow="visible"
     id="path34"
     inkscape:connector-curvature="0" /><path
     d="m 76.008827,18.299674 c -1.010625,0 -1.914018,0.281911 -2.622945,0.859989 -0.696161,0.567013 -1.205729,1.364237 -1.535937,2.342309 -0.334251,0.989775 -0.4851,2.233163 -0.4851,3.748037 0,2.410394 0.404888,4.224625 1.358706,5.427801 a 0.57494681,0.57494681 0 0 0 0,0.0021 c 0.788713,0.990838 1.945293,1.509129 3.285276,1.509129 1.01637,0 1.922315,-0.282975 2.63188,-0.864457 0.695523,-0.570418 1.202325,-1.371046 1.529342,-2.349118 0.330421,-0.988498 0.480632,-2.222311 0.480632,-3.725483 0,-1.26509 -0.09213,-2.28763 -0.298719,-3.0923 l 0,-0.0021 C 80.152815,21.379634 79.872819,20.703047 79.503037,20.132416 79.126446,19.550934 78.633048,19.086898 78.041141,18.77137 77.443064,18.452012 76.755838,18.299887 76.008827,18.299887 z m -0.01702,2.416351 c 0.534035,0 0.921264,0.207444 1.322749,0.772331 0.320421,0.45127 0.61297,1.752104 0.61297,3.761653 0,1.99742 -0.289145,3.29251 -0.61297,3.752504 -0.403399,0.572546 -0.786586,0.779139 -1.304877,0.779139 -0.518504,0 -0.901903,-0.205104 -1.304664,-0.774671 -0.321911,-0.455313 -0.615311,-1.753807 -0.615311,-3.756972 0,-1.994868 0.298507,-3.31868 0.687225,-3.882716 l 0.0021,-0.0043 c 0.331698,-0.468717 0.67297,-0.646587 1.21275,-0.646587 z"
     style="text-indent:0;text-transform:none;direction:ltr;block-progression:tb;baseline-shift:baseline;color:#000000;fill:#000000;fill-opacity:1;fill-rule:nonzero;stroke:none;marker:none;visibility:visible;display:inline;overflow:visible;enable-background:accumulate"
     visibility="visible"
     display="inline"
     overflow="visible"
     id="path36"
     inkscape:connector-curvature="0" /><path
     d="m 88.43909,18.299674 a 0.57494681,0.57494681 0 0 0 -0.516376,0.318932 c -0.221487,0.447441 -0.624673,0.955732 -1.228495,1.495512 -0.596162,0.532759 -1.297004,0.990626 -2.108696,1.37211 a 0.57494681,0.57494681 0 0 0 -0.330208,0.518717 l 0,1.482108 a 0.57494681,0.57494681 0 0 0 0.772543,0.538929 c 0.520206,-0.191912 1.086582,-0.470632 1.706786,-0.835308 0.213402,-0.125318 0.395527,-0.252337 0.583823,-0.37957 l 0,8.592016 a 0.57494681,0.57494681 0 0 0 0.574886,0.574886 l 1.531682,0 a 0.57494681,0.57494681 0 0 0 0.574886,-0.574886 l 0,-12.52856 a 0.57494681,0.57494681 0 0 0 -0.574886,-0.574886 l -0.985945,0 z"
     style="text-indent:0;text-transform:none;direction:ltr;block-progression:tb;baseline-shift:baseline;color:#000000;fill:#000000;fill-opacity:1;fill-rule:nonzero;stroke:none;marker:none;visibility:visible;display:inline;overflow:visible;enable-background:accumulate"
     visibility="visible"
     display="inline"
     overflow="visible"
     id="path38"
     inkscape:connector-curvature="0" /><path
     d="m 88.43909,36.595276 a 0.57494681,0.57494681 0 0 0 -0.516376,0.318932 c -0.221487,0.447441 -0.624673,0.955732 -1.228495,1.495512 -0.596162,0.532759 -1.297004,0.990626 -2.108696,1.37211 a 0.57494681,0.57494681 0 0 0 -0.330208,0.518717 l 0,1.482108 a 0.57494681,0.57494681 0 0 0 0.772543,0.538929 c 0.520206,-0.191912 1.086582,-0.470632 1.706786,-0.835308 0.213402,-0.125318 0.395527,-0.252337 0.583823,-0.37957 l 0,8.592016 a 0.57494681,0.57494681 0 0 0 0.574886,0.574886 l 1.531682,0 a 0.57494681,0.57494681 0 0 0 0.574886,-0.574886 l 0,-12.52856 a 0.57494681,0.57494681 0 0 0 -0.574886,-0.574886 l -0.985945,0 z"
     style="text-indent:0;text-transform:none;direction:ltr;block-progression:tb;baseline-shift:baseline;color:#000000;fill:#000000;fill-opacity:1;fill-rule:nonzero;stroke:none;marker:none;visibility:visible;display:inline;overflow:visible;enable-background:accumulate"
     visibility="visible"
     display="inline"
     overflow="visible"
     id="path40"
     inkscape:connector-curvature="0" /><path
     d="m 66.524483,36.595276 a 0.57494681,0.57494681 0 0 0 -0.516377,0.318932 c -0.221486,0.447441 -0.624672,0.955732 -1.228494,1.495512 -0.596163,0.532759 -1.297005,0.990626 -2.108696,1.37211 a 0.57494681,0.57494681 0 0 0 -0.330209,0.518717 l 0,1.482108 a 0.57494681,0.57494681 0 0 0 0.772544,0.538929 c 0.520206,-0.191912 1.086581,-0.470632 1.706786,-0.835308 0.213401,-0.125318 0.395527,-0.252337 0.583822,-0.37957 l 0,8.592016 a 0.57494681,0.57494681 0 0 0 0.574886,0.574886 l 1.531682,0 a 0.57494681,0.57494681 0 0 0 0.574886,-0.574886 l 0,-12.52856 a 0.57494681,0.57494681 0 0 0 -0.574886,-0.574886 l -0.985944,0 z"
     style="text-indent:0;text-transform:none;direction:ltr;block-progression:tb;baseline-shift:baseline;color:#000000;fill:#000000;fill-opacity:1;fill-rule:nonzero;stroke:none;marker:none;visibility:visible;display:inline;overflow:visible;enable-background:accumulate"
     visibility="visible"
     display="inline"
     overflow="visible"
     id="path42"
     inkscape:connector-curvature="0" /><path
     d="m 56.89397,36.595276 a 0.57494681,0.57494681 0 0 0 -0.516376,0.318932 c -0.221487,0.447441 -0.624673,0.955732 -1.228495,1.495512 -0.596162,0.532759 -1.297004,0.990626 -2.108696,1.37211 a 0.57494681,0.57494681 0 0 0 -0.330208,0.518717 l 0,1.482108 a 0.57494681,0.57494681 0 0 0 0.772543,0.538929 c 0.520206,-0.191912 1.086582,-0.470632 1.706786,-0.835308 0.213402,-0.125318 0.395527,-0.252337 0.583822,-0.37957 l 0,8.592016 a 0.57494681,0.57494681 0 0 0 0.574887,0.574886 l 1.531682,0 a 0.57494681,0.57494681 0 0 0 0.574886,-0.574886 l 0,-12.52856 a 0.57494681,0.57494681 0 0 0 -0.574886,-0.574886 l -0.985945,0 z"
     style="text-indent:0;text-transform:none;direction:ltr;block-progression:tb;baseline-shift:baseline;color:#000000;fill:#000000;fill-opacity:1;fill-rule:nonzero;stroke:none;marker:none;visibility:visible;display:inline;overflow:visible;enable-background:accumulate"
     visibility="visible"
     display="inline"
     overflow="visible"
     id="path44"
     inkscape:connector-curvature="0" /><path
     d="m 76.008827,36.384215 c -1.010625,0 -1.914018,0.281911 -2.622945,0.859989 -0.696161,0.567014 -1.205729,1.364237 -1.535937,2.342309 -0.334251,0.989775 -0.4851,2.233163 -0.4851,3.748037 0,2.410394 0.404888,4.224625 1.358706,5.427801 a 0.57494681,0.57494681 0 0 0 0,0.0021 c 0.788713,0.990838 1.945293,1.509129 3.285276,1.509129 1.01637,0 1.922315,-0.282975 2.63188,-0.864457 0.695523,-0.570418 1.202325,-1.371046 1.529342,-2.349118 0.330421,-0.988498 0.480632,-2.222311 0.480632,-3.725483 0,-1.26509 -0.09213,-2.28763 -0.298719,-3.0923 l 0,-0.0021 c -0.199147,-0.775947 -0.479143,-1.452534 -0.848925,-2.023165 -0.376591,-0.581482 -0.869989,-1.045518 -1.461896,-1.361046 -0.598077,-0.319358 -1.285303,-0.471483 -2.032314,-0.471483 z m -0.01702,2.416351 c 0.534035,0 0.921264,0.207444 1.322749,0.772331 0.320421,0.45127 0.61297,1.752104 0.61297,3.761653 0,1.99742 -0.289145,3.29251 -0.61297,3.752504 -0.403399,0.572546 -0.786586,0.779139 -1.304877,0.779139 -0.518504,0 -0.901903,-0.205104 -1.304664,-0.774671 -0.321911,-0.455313 -0.615311,-1.753807 -0.615311,-3.756972 0,-1.994868 0.298507,-3.31868 0.687225,-3.882716 l 0.0021,-0.0043 c 0.331698,-0.468717 0.67297,-0.646587 1.21275,-0.646587 z"
     style="text-indent:0;text-transform:none;direction:ltr;block-progression:tb;baseline-shift:baseline;color:#000000;fill:#000000;fill-opacity:1;fill-rule:nonzero;stroke:none;marker:none;visibility:visible;display:inline;overflow:visible;enable-background:accumulate"
     visibility="visible"
     display="inline"
     overflow="visible"
     id="path46"
     inkscape:connector-curvature="0" /><path
     d="m 88.43909,72.765067 a 0.57494681,0.57494681 0 0 0 -0.516376,0.318932 c -0.221487,0.447441 -0.624673,0.955732 -1.228495,1.495513 -0.596162,0.532759 -1.297004,0.990625 -2.108696,1.372109 a 0.57494681,0.57494681 0 0 0 -0.330208,0.518717 l 0,1.482108 a 0.57494681,0.57494681 0 0 0 0.772543,0.538929 c 0.520206,-0.191912 1.086582,-0.470632 1.706786,-0.835308 0.213402,-0.125317 0.395527,-0.252337 0.583823,-0.379569 l 0,8.592015 a 0.57494681,0.57494681 0 0 0 0.574886,0.574886 l 1.531682,0 a 0.57494681,0.57494681 0 0 0 0.574886,-0.574886 l 0,-12.52856 a 0.57494681,0.57494681 0 0 0 -0.574886,-0.574886 l -0.985945,0 z"
     style="text-indent:0;text-transform:none;direction:ltr;block-progression:tb;baseline-shift:baseline;color:#000000;fill:#000000;fill-opacity:1;fill-rule:nonzero;stroke:none;marker:none;visibility:visible;display:inline;overflow:visible;enable-background:accumulate"
     visibility="visible"
     display="inline"
     overflow="visible"
     id="path48"
     inkscape:connector-curvature="0" /><path
     d="m 77.319235,72.765067 a 0.57494681,0.57494681 0 0 0 -0.516376,0.318932 c -0.221486,0.447441 -0.624673,0.955732 -1.228494,1.495513 -0.596163,0.532759 -1.297005,0.990625 -2.108696,1.372109 a 0.57494681,0.57494681 0 0 0 -0.330209,0.518717 l 0,1.482108 a 0.57494681,0.57494681 0 0 0 0.772543,0.538929 c 0.520206,-0.191912 1.086582,-0.470632 1.706787,-0.835308 0.213401,-0.125317 0.395526,-0.252337 0.583822,-0.379569 l 0,8.592015 a 0.57494681,0.57494681 0 0 0 0.574886,0.574886 l 1.531682,0 a 0.57494681,0.57494681 0 0 0 0.574886,-0.574886 l 0,-12.52856 A 0.57494681,0.57494681 0 0 0 78.30518,72.765067 l -0.985945,0 z"
     style="text-indent:0;text-transform:none;direction:ltr;block-progression:tb;baseline-shift:baseline;color:#000000;fill:#000000;fill-opacity:1;fill-rule:nonzero;stroke:none;marker:none;visibility:visible;display:inline;overflow:visible;enable-background:accumulate"
     visibility="visible"
     display="inline"
     overflow="visible"
     id="path50"
     inkscape:connector-curvature="0" /><path
     d="m 56.89397,72.765067 a 0.57494681,0.57494681 0 0 0 -0.516376,0.318932 c -0.221487,0.447441 -0.624673,0.955732 -1.228495,1.495513 -0.596162,0.532759 -1.297004,0.990625 -2.108696,1.372109 a 0.57494681,0.57494681 0 0 0 -0.330208,0.518717 l 0,1.482108 a 0.57494681,0.57494681 0 0 0 0.772543,0.538929 c 0.520206,-0.191912 1.086582,-0.470632 1.706786,-0.835308 0.213402,-0.125317 0.395527,-0.252337 0.583822,-0.379569 l 0,8.592015 a 0.57494681,0.57494681 0 0 0 0.574887,0.574886 l 1.531682,0 a 0.57494681,0.57494681 0 0 0 0.574886,-0.574886 l 0,-12.52856 a 0.57494681,0.57494681 0 0 0 -0.574886,-0.574886 l -0.985945,0 z"
     style="text-indent:0;text-transform:none;direction:ltr;block-progression:tb;baseline-shift:baseline;color:#000000;fill:#000000;fill-opacity:1;fill-rule:nonzero;stroke:none;marker:none;visibility:visible;display:inline;overflow:visible;enable-background:accumulate"
     visibility="visible"
     display="inline"
     overflow="visible"
     id="path52"
     inkscape:connector-curvature="0" /><path
     d="m 65.214074,72.554006 c -1.010625,0 -1.914017,0.281911 -2.622944,0.859989 -0.696161,0.567014 -1.205729,1.364237 -1.535938,2.34231 -0.334251,0.989774 -0.4851,2.233162 -0.4851,3.748036 0,2.410394 0.404889,4.224626 1.358706,5.427801 a 0.57494681,0.57494681 0 0 0 0,0.0021 c 0.788713,0.990838 1.945294,1.509129 3.285276,1.509129 1.01637,0 1.922316,-0.282975 2.631881,-0.864457 0.695523,-0.570418 1.202324,-1.371045 1.529341,-2.349118 0.330422,-0.988498 0.480633,-2.222311 0.480633,-3.725483 0,-1.26509 -0.09213,-2.28763 -0.29872,-3.0923 l 0,-0.0021 C 69.358063,75.633966 69.078066,74.957379 68.708284,74.386748 68.331693,73.805266 67.838295,73.34123 67.246388,73.025702 66.648311,72.706345 65.961086,72.554219 65.214074,72.554219 z m -0.01702,2.416352 c 0.534036,0 0.921265,0.207444 1.322749,0.77233 0.320421,0.451271 0.612971,1.752105 0.612971,3.761653 0,1.997421 -0.289146,3.29251 -0.612971,3.752504 -0.403399,0.572546 -0.786586,0.779139 -1.304877,0.779139 -0.518504,0 -0.901903,-0.205104 -1.304664,-0.774671 -0.32191,-0.455313 -0.615311,-1.753807 -0.615311,-3.756972 0,-1.994868 0.298507,-3.31868 0.687225,-3.882715 l 0.0021,-0.0043 c 0.331698,-0.468717 0.67297,-0.646587 1.21275,-0.646587 z"
     style="text-indent:0;text-transform:none;direction:ltr;block-progression:tb;baseline-shift:baseline;color:#000000;fill:#000000;fill-opacity:1;fill-rule:nonzero;stroke:none;marker:none;visibility:visible;display:inline;overflow:visible;enable-background:accumulate"
     visibility="visible"
     display="inline"
     overflow="visible"
     id="path54"
     inkscape:connector-curvature="0" /></svg>